<mxfile host="app.diagrams.net" modified="2021-09-08T20:03:24.966Z" agent="5.0 (Windows NT 10.0; Win64; x64) AppleWebKit/537.36 (KHTML, like Gecko) Chrome/93.0.4577.63 Safari/537.36" etag="FYGuLR0DhCcPU343Onz3" version="14.8.6" type="github">
  <diagram id="30xWkC1ygPRy39HFyyRH" name="Page-1">
    <mxGraphModel dx="782" dy="436" grid="0" gridSize="10" guides="0" tooltips="1" connect="1" arrows="1" fold="1" page="1" pageScale="1" pageWidth="850" pageHeight="1100" math="0" shadow="0">
      <root>
        <mxCell id="0" />
        <mxCell id="1" parent="0" />
        <mxCell id="zWN-aV_KUH45fdRNiJmX-1" value="" style="shape=process;whiteSpace=wrap;html=1;backgroundOutline=1;rotation=-180;shadow=0;sketch=1;fillStyle=solid;fillColor=#FFFFFF;" vertex="1" parent="1">
          <mxGeometry x="150" y="40" width="50" height="110" as="geometry" />
        </mxCell>
        <mxCell id="zWN-aV_KUH45fdRNiJmX-2" value="" style="shape=process;whiteSpace=wrap;html=1;backgroundOutline=1;rotation=-180;" vertex="1" parent="1">
          <mxGeometry x="190" y="40" width="40" height="110" as="geometry" />
        </mxCell>
        <mxCell id="zWN-aV_KUH45fdRNiJmX-3" value="" style="shape=process;whiteSpace=wrap;html=1;backgroundOutline=1;rotation=-180;" vertex="1" parent="1">
          <mxGeometry x="220" y="40" width="40" height="110" as="geometry" />
        </mxCell>
        <mxCell id="zWN-aV_KUH45fdRNiJmX-4" value="" style="shape=process;whiteSpace=wrap;html=1;backgroundOutline=1;rotation=-180;" vertex="1" parent="1">
          <mxGeometry x="310" y="40" width="40" height="110" as="geometry" />
        </mxCell>
        <mxCell id="zWN-aV_KUH45fdRNiJmX-5" value="" style="shape=process;whiteSpace=wrap;html=1;backgroundOutline=1;rotation=-180;" vertex="1" parent="1">
          <mxGeometry x="250" y="40" width="40" height="110" as="geometry" />
        </mxCell>
        <mxCell id="zWN-aV_KUH45fdRNiJmX-6" value="" style="shape=process;whiteSpace=wrap;html=1;backgroundOutline=1;rotation=-180;" vertex="1" parent="1">
          <mxGeometry x="280" y="40" width="40" height="110" as="geometry" />
        </mxCell>
        <mxCell id="zWN-aV_KUH45fdRNiJmX-7" value="" style="shape=process;whiteSpace=wrap;html=1;backgroundOutline=1;rotation=-180;" vertex="1" parent="1">
          <mxGeometry x="340" y="40" width="40" height="110" as="geometry" />
        </mxCell>
        <mxCell id="zWN-aV_KUH45fdRNiJmX-8" value="" style="shape=process;whiteSpace=wrap;html=1;backgroundOutline=1;rotation=-180;" vertex="1" parent="1">
          <mxGeometry x="370" y="40" width="40" height="110" as="geometry" />
        </mxCell>
        <mxCell id="zWN-aV_KUH45fdRNiJmX-9" value="" style="shape=process;whiteSpace=wrap;html=1;backgroundOutline=1;rotation=-180;" vertex="1" parent="1">
          <mxGeometry x="405" y="40" width="40" height="110" as="geometry" />
        </mxCell>
        <mxCell id="zWN-aV_KUH45fdRNiJmX-10" value="" style="shape=process;whiteSpace=wrap;html=1;backgroundOutline=1;rotation=-180;" vertex="1" parent="1">
          <mxGeometry x="440" y="40" width="40" height="110" as="geometry" />
        </mxCell>
        <mxCell id="zWN-aV_KUH45fdRNiJmX-11" value="" style="shape=process;whiteSpace=wrap;html=1;backgroundOutline=1;rotation=-180;" vertex="1" parent="1">
          <mxGeometry x="470" y="40" width="40" height="110" as="geometry" />
        </mxCell>
        <mxCell id="zWN-aV_KUH45fdRNiJmX-12" value="" style="shape=process;whiteSpace=wrap;html=1;backgroundOutline=1;rotation=-180;" vertex="1" parent="1">
          <mxGeometry x="500" y="40" width="40" height="110" as="geometry" />
        </mxCell>
        <mxCell id="zWN-aV_KUH45fdRNiJmX-13" value="" style="shape=process;whiteSpace=wrap;html=1;backgroundOutline=1;rotation=-180;" vertex="1" parent="1">
          <mxGeometry x="530" y="40" width="40" height="110" as="geometry" />
        </mxCell>
        <mxCell id="zWN-aV_KUH45fdRNiJmX-14" value="" style="shape=process;whiteSpace=wrap;html=1;backgroundOutline=1;rotation=-90;" vertex="1" parent="1">
          <mxGeometry x="354.06" y="-62.18" width="7.5" height="418.12" as="geometry" />
        </mxCell>
        <mxCell id="zWN-aV_KUH45fdRNiJmX-15" value="" style="rounded=0;whiteSpace=wrap;html=1;" vertex="1" parent="1">
          <mxGeometry x="150" y="150" width="420" height="20" as="geometry" />
        </mxCell>
        <mxCell id="zWN-aV_KUH45fdRNiJmX-16" value="" style="shape=process;whiteSpace=wrap;html=1;backgroundOutline=1;rotation=90;" vertex="1" parent="1">
          <mxGeometry x="349.14" y="-32.89" width="15.94" height="421.72" as="geometry" />
        </mxCell>
        <mxCell id="zWN-aV_KUH45fdRNiJmX-17" value="" style="rounded=0;whiteSpace=wrap;html=1;shadow=0;sketch=1;fillColor=#FFFFFF;" vertex="1" parent="1">
          <mxGeometry x="146.01" y="185" width="423.99" height="50" as="geometry" />
        </mxCell>
        <mxCell id="zWN-aV_KUH45fdRNiJmX-22" value="Plot 3 Maize and Beans" style="text;html=1;strokeColor=none;fillColor=none;align=center;verticalAlign=middle;whiteSpace=wrap;rounded=0;shadow=0;sketch=1;" vertex="1" parent="1">
          <mxGeometry x="325" y="200" width="185" height="20" as="geometry" />
        </mxCell>
        <mxCell id="zWN-aV_KUH45fdRNiJmX-23" value="Plot 3 Spider" style="text;html=1;strokeColor=none;fillColor=none;align=center;verticalAlign=middle;whiteSpace=wrap;rounded=0;shadow=0;sketch=1;rotation=-90;" vertex="1" parent="1">
          <mxGeometry x="135" y="85" width="80" height="20" as="geometry" />
        </mxCell>
        <mxCell id="zWN-aV_KUH45fdRNiJmX-24" value="Plot 4 MiTo" style="text;html=1;strokeColor=none;fillColor=none;align=center;verticalAlign=middle;whiteSpace=wrap;rounded=0;shadow=0;sketch=1;rotation=-90;" vertex="1" parent="1">
          <mxGeometry x="170" y="85" width="80" height="20" as="geometry" />
        </mxCell>
        <mxCell id="zWN-aV_KUH45fdRNiJmX-25" value="Plot 5 hoho" style="text;html=1;strokeColor=none;fillColor=none;align=center;verticalAlign=middle;whiteSpace=wrap;rounded=0;shadow=0;sketch=1;rotation=-90;" vertex="1" parent="1">
          <mxGeometry x="200" y="85" width="80" height="20" as="geometry" />
        </mxCell>
        <mxCell id="zWN-aV_KUH45fdRNiJmX-26" value="Plot 6 bringanya" style="text;html=1;strokeColor=none;fillColor=none;align=center;verticalAlign=middle;whiteSpace=wrap;rounded=0;shadow=0;sketch=1;rotation=-90;" vertex="1" parent="1">
          <mxGeometry x="225" y="85" width="90" height="20" as="geometry" />
        </mxCell>
        <mxCell id="zWN-aV_KUH45fdRNiJmX-27" value="Plot 7 Cowpea" style="text;html=1;strokeColor=none;fillColor=none;align=center;verticalAlign=middle;whiteSpace=wrap;rounded=0;shadow=0;sketch=1;rotation=-90;" vertex="1" parent="1">
          <mxGeometry x="255" y="80" width="90" height="20" as="geometry" />
        </mxCell>
        <mxCell id="zWN-aV_KUH45fdRNiJmX-28" value="Plot 8 managu1" style="text;html=1;strokeColor=none;fillColor=none;align=center;verticalAlign=middle;whiteSpace=wrap;rounded=0;shadow=0;sketch=1;rotation=-90;" vertex="1" parent="1">
          <mxGeometry x="281.95" y="78.98" width="92.03" height="20" as="geometry" />
        </mxCell>
        <mxCell id="zWN-aV_KUH45fdRNiJmX-29" value="Plot 9 managu 2" style="text;html=1;strokeColor=none;fillColor=none;align=center;verticalAlign=middle;whiteSpace=wrap;rounded=0;shadow=0;sketch=1;rotation=-90;" vertex="1" parent="1">
          <mxGeometry x="315" y="80" width="90" height="20" as="geometry" />
        </mxCell>
        <mxCell id="zWN-aV_KUH45fdRNiJmX-30" value="Plot 10 Dania" style="text;html=1;strokeColor=none;fillColor=none;align=center;verticalAlign=middle;whiteSpace=wrap;rounded=0;shadow=0;sketch=1;rotation=-90;" vertex="1" parent="1">
          <mxGeometry x="350" y="85" width="80" height="20" as="geometry" />
        </mxCell>
        <mxCell id="zWN-aV_KUH45fdRNiJmX-31" value="Plot 11 Carrots" style="text;html=1;strokeColor=none;fillColor=none;align=center;verticalAlign=middle;whiteSpace=wrap;rounded=0;shadow=0;sketch=1;rotation=-90;" vertex="1" parent="1">
          <mxGeometry x="382.5" y="82.5" width="85" height="20" as="geometry" />
        </mxCell>
        <mxCell id="zWN-aV_KUH45fdRNiJmX-32" value="&lt;font style=&quot;font-size: 10px&quot;&gt;Plot 12 Bambara nut&lt;/font&gt;" style="text;html=1;strokeColor=none;fillColor=none;align=center;verticalAlign=middle;whiteSpace=wrap;rounded=0;shadow=0;sketch=1;rotation=-90;" vertex="1" parent="1">
          <mxGeometry x="410" y="82.5" width="100" height="20" as="geometry" />
        </mxCell>
        <mxCell id="zWN-aV_KUH45fdRNiJmX-33" value="Plot 13 green gram" style="text;html=1;strokeColor=none;fillColor=none;align=center;verticalAlign=middle;whiteSpace=wrap;rounded=0;shadow=0;sketch=1;rotation=-90;" vertex="1" parent="1">
          <mxGeometry x="445" y="80" width="90" height="20" as="geometry" />
        </mxCell>
        <mxCell id="zWN-aV_KUH45fdRNiJmX-34" value="Plot 14 soya" style="text;html=1;strokeColor=none;fillColor=none;align=center;verticalAlign=middle;whiteSpace=wrap;rounded=0;shadow=0;sketch=1;rotation=-90;" vertex="1" parent="1">
          <mxGeometry x="480" y="85" width="80" height="20" as="geometry" />
        </mxCell>
        <mxCell id="zWN-aV_KUH45fdRNiJmX-35" value="Plot 15 millet" style="text;html=1;strokeColor=none;fillColor=none;align=center;verticalAlign=middle;whiteSpace=wrap;rounded=0;shadow=0;sketch=1;rotation=-90;" vertex="1" parent="1">
          <mxGeometry x="510" y="85" width="80" height="20" as="geometry" />
        </mxCell>
        <mxCell id="zWN-aV_KUH45fdRNiJmX-36" value="Plot&amp;nbsp; 2 SIM SIM" style="text;html=1;strokeColor=none;fillColor=none;align=center;verticalAlign=middle;whiteSpace=wrap;rounded=0;shadow=0;sketch=1;" vertex="1" parent="1">
          <mxGeometry x="300" y="155" width="140" height="15" as="geometry" />
        </mxCell>
        <mxCell id="zWN-aV_KUH45fdRNiJmX-37" value="72 m" style="text;html=1;strokeColor=none;fillColor=none;align=center;verticalAlign=middle;whiteSpace=wrap;rounded=0;shadow=0;sketch=1;" vertex="1" parent="1">
          <mxGeometry x="250" y="240" width="185" height="20" as="geometry" />
        </mxCell>
        <mxCell id="zWN-aV_KUH45fdRNiJmX-38" value="4m" style="text;html=1;strokeColor=none;fillColor=none;align=center;verticalAlign=middle;whiteSpace=wrap;rounded=0;shadow=0;sketch=1;" vertex="1" parent="1">
          <mxGeometry x="150" y="20" width="30" height="20" as="geometry" />
        </mxCell>
        <mxCell id="zWN-aV_KUH45fdRNiJmX-39" value="4m" style="text;html=1;strokeColor=none;fillColor=none;align=center;verticalAlign=middle;whiteSpace=wrap;rounded=0;shadow=0;sketch=1;" vertex="1" parent="1">
          <mxGeometry x="225" y="20" width="30" height="20" as="geometry" />
        </mxCell>
        <mxCell id="zWN-aV_KUH45fdRNiJmX-40" value="4m" style="text;html=1;strokeColor=none;fillColor=none;align=center;verticalAlign=middle;whiteSpace=wrap;rounded=0;shadow=0;sketch=1;" vertex="1" parent="1">
          <mxGeometry x="190" y="20" width="30" height="20" as="geometry" />
        </mxCell>
        <mxCell id="zWN-aV_KUH45fdRNiJmX-43" value="5m" style="text;html=1;strokeColor=none;fillColor=none;align=center;verticalAlign=middle;whiteSpace=wrap;rounded=0;shadow=0;sketch=1;" vertex="1" parent="1">
          <mxGeometry x="251.95" y="20" width="30" height="20" as="geometry" />
        </mxCell>
        <mxCell id="zWN-aV_KUH45fdRNiJmX-44" value="5m" style="text;html=1;strokeColor=none;fillColor=none;align=center;verticalAlign=middle;whiteSpace=wrap;rounded=0;shadow=0;sketch=1;" vertex="1" parent="1">
          <mxGeometry x="290" y="20" width="30" height="20" as="geometry" />
        </mxCell>
        <mxCell id="zWN-aV_KUH45fdRNiJmX-45" value="5m" style="text;html=1;strokeColor=none;fillColor=none;align=center;verticalAlign=middle;whiteSpace=wrap;rounded=0;shadow=0;sketch=1;" vertex="1" parent="1">
          <mxGeometry x="320" y="20" width="30" height="20" as="geometry" />
        </mxCell>
        <mxCell id="zWN-aV_KUH45fdRNiJmX-46" value="5m" style="text;html=1;strokeColor=none;fillColor=none;align=center;verticalAlign=middle;whiteSpace=wrap;rounded=0;shadow=0;sketch=1;" vertex="1" parent="1">
          <mxGeometry x="345.01" y="20" width="30" height="20" as="geometry" />
        </mxCell>
        <mxCell id="zWN-aV_KUH45fdRNiJmX-47" value="3m" style="text;html=1;strokeColor=none;fillColor=none;align=center;verticalAlign=middle;whiteSpace=wrap;rounded=0;shadow=0;sketch=1;" vertex="1" parent="1">
          <mxGeometry x="375.01" y="20" width="30" height="20" as="geometry" />
        </mxCell>
        <mxCell id="zWN-aV_KUH45fdRNiJmX-48" value="6m" style="text;html=1;strokeColor=none;fillColor=none;align=center;verticalAlign=middle;whiteSpace=wrap;rounded=0;shadow=0;sketch=1;" vertex="1" parent="1">
          <mxGeometry x="405.01" y="20" width="30" height="20" as="geometry" />
        </mxCell>
        <mxCell id="zWN-aV_KUH45fdRNiJmX-49" value="4m" style="text;html=1;strokeColor=none;fillColor=none;align=center;verticalAlign=middle;whiteSpace=wrap;rounded=0;shadow=0;sketch=1;" vertex="1" parent="1">
          <mxGeometry x="440" y="20" width="30" height="20" as="geometry" />
        </mxCell>
        <mxCell id="zWN-aV_KUH45fdRNiJmX-50" value="5m" style="text;html=1;strokeColor=none;fillColor=none;align=center;verticalAlign=middle;whiteSpace=wrap;rounded=0;shadow=0;sketch=1;" vertex="1" parent="1">
          <mxGeometry x="475" y="20" width="30" height="20" as="geometry" />
        </mxCell>
        <mxCell id="zWN-aV_KUH45fdRNiJmX-51" value="6m" style="text;html=1;strokeColor=none;fillColor=none;align=center;verticalAlign=middle;whiteSpace=wrap;rounded=0;shadow=0;sketch=1;" vertex="1" parent="1">
          <mxGeometry x="505" y="20" width="30" height="20" as="geometry" />
        </mxCell>
        <mxCell id="zWN-aV_KUH45fdRNiJmX-52" value="4m" style="text;html=1;strokeColor=none;fillColor=none;align=center;verticalAlign=middle;whiteSpace=wrap;rounded=0;shadow=0;sketch=1;" vertex="1" parent="1">
          <mxGeometry x="535" y="20" width="30" height="20" as="geometry" />
        </mxCell>
        <mxCell id="zWN-aV_KUH45fdRNiJmX-53" value="Path" style="text;html=1;strokeColor=none;fillColor=none;align=center;verticalAlign=middle;whiteSpace=wrap;rounded=0;shadow=0;sketch=1;" vertex="1" parent="1">
          <mxGeometry x="273" y="169" width="121" height="20" as="geometry" />
        </mxCell>
      </root>
    </mxGraphModel>
  </diagram>
</mxfile>
